<svg xmlns="http://www.w3.org/2000/svg" width="1200" height="630" viewBox="0 0 1200 630" role="img" aria-labelledby="title description">
  <title id="title">LLM Field Notes</title>
  <desc id="description">Documents into a living knowledge graph.</desc>
  <rect width="1200" height="630" fill="#10100f"/>
  <circle cx="1010" cy="110" r="240" fill="#191815"/>
  <circle cx="1050" cy="80" r="145" fill="#201e19"/>
  <g fill="none" stroke="#f5a524" stroke-linecap="round" opacity=".72">
    <path d="M760 160 930 300 1080 205 1125 390 950 490 790 390 930 300" stroke-width="4"/>
    <path d="M790 390 1080 205M930 300 950 490" stroke-width="2"/>
  </g>
  <g fill="#f5a524">
    <circle cx="760" cy="160" r="12"/>
    <circle cx="930" cy="300" r="16"/>
    <circle cx="1080" cy="205" r="11"/>
    <circle cx="1125" cy="390" r="13"/>
    <circle cx="950" cy="490" r="11"/>
    <circle cx="790" cy="390" r="14"/>
  </g>
  <rect x="74" y="76" width="76" height="76" rx="20" fill="#f5a524"/>
  <path d="M94 96h36v9H94zm0 16h25v9H94zm0 16h36v9H94z" fill="#10100f"/>
  <text x="74" y="246" fill="#f5a524" font-family="ui-monospace, SFMono-Regular, Menlo, monospace" font-size="18" letter-spacing="4">LLM FIELD NOTES</text>
  <text x="74" y="348" fill="#f5f0e8" font-family="ui-sans-serif, system-ui, sans-serif" font-size="64" font-weight="700">Turn documents</text>
  <text x="74" y="420" fill="#f5f0e8" font-family="ui-sans-serif, system-ui, sans-serif" font-size="64" font-weight="700">into a <tspan fill="#f5a524">living map.</tspan></text>
  <text x="76" y="500" fill="#aaa59b" font-family="ui-sans-serif, system-ui, sans-serif" font-size="24">Inspect the evidence. Improve the representation. Project it into Obsidian.</text>
  <text x="76" y="570" fill="#6f6b63" font-family="ui-monospace, SFMono-Regular, Menlo, monospace" font-size="16" letter-spacing="2">INGEST  →  INFER  →  INSPECT  →  IMPROVE  →  PROJECT</text>
</svg>
